<svg id="Layer_1" enable-background="new 0 0 512 512" height="512" viewBox="0 0 512 512" width="512" xmlns="http://www.w3.org/2000/svg"><g><path d="m508.931 263.405-245.522 245.521c-4.091 4.091-10.725 4.091-14.816 0l-245.522-245.521c-4.091-4.091-4.091-10.724 0-14.816l245.522-245.521c4.091-4.091 10.725-4.091 14.816 0l245.522 245.521c4.092 4.092 4.092 10.725 0 14.816z" fill="#e94444"/><path d="m508.932 248.589-245.523-245.521c-4.091-4.091-10.724-4.091-14.816 0l-8.045 8.045 237.478 237.476c4.091 4.091 4.091 10.724 0 14.816l-237.478 237.476 8.045 8.045c4.091 4.091 10.725 4.091 14.816 0l245.523-245.521c4.091-4.091 4.091-10.724 0-14.816z" fill="#d83131"/><path d="m256.001.001v100.007l-155.899 155.898h-100.102c.021-2.651 1.048-5.291 3.07-7.313l245.524-245.522c2.043-2.043 4.725-3.07 7.407-3.07z" fill="#ee6161"/><path d="m414.341 255.665-158.34 158.339v97.996c2.609 0 5.217-.974 7.239-2.902l.168-.168 246.908-247.23c1.184-1.823 1.739-3.939 1.676-6.034h-97.651z" fill="#ee6161"/><path d="m481.086 255.665c.063 2.095-.492 4.212-1.676 6.034l-223.409 223.702v26.599c2.609 0 5.217-.974 7.239-2.902l.168-.168 246.908-247.23c1.184-1.823 1.739-3.939 1.676-6.034h-30.906z" fill="#e94444"/><path d="m91.965 248.59 156.628-156.627c4.091-4.091 10.725-4.091 14.816 0l156.628 156.627c4.091 4.091 4.091 10.725 0 14.816l-156.628 156.626c-4.091 4.091-10.725 4.091-14.816 0l-156.628-156.627c-4.091-4.091-4.091-10.724 0-14.815z" fill="#f37c7c"/></g></svg>